inDegrees=yes
name=ik_MT_012005D6_009-001_orientations
DataType=double
version=3
OpenSimVersion=4.4-2022-07-23-0e9fedc
endheader
time	pelvis_tilt	pelvis_list	pelvis_rotation	pelvis_tx	pelvis_ty	pelvis_tz	hip_flexion_r	hip_adduction_r	hip_rotation_r	knee_angle_r	knee_angle_r_beta	ankle_angle_r	subtalar_angle_r	mtp_angle_r	hip_flexion_l	hip_adduction_l	hip_rotation_l	knee_angle_l	knee_angle_l_beta	ankle_angle_l	subtalar_angle_l	mtp_angle_l	lumbar_extension	lumbar_bending	lumbar_rotation	arm_flex_r	arm_add_r	arm_rot_r	elbow_flex_r	pro_sup_r	wrist_flex_r	wrist_dev_r	arm_flex_l	arm_add_l	arm_rot_l	elbow_flex_l	pro_sup_l	wrist_flex_l	wrist_dev_l
18.24000000000005	646.1724530636228	-6479.207923535061	9362.621683324898	0	0.93	0	-6.688426924266798	23.9720974499491	-6.937320879817744	0.04477326476959286	0.0007814408870965758	-0.1677388781498977	0	0	1.366028215618398	7.490558646548164	-3.880549243763156	4.060900898905551	0.07087609128309925	12.07443864655494	0	0	0	0	0	0	0	0	0	6.960484096293432e-40	0	0	0	0	0	6.765933633064583e-40	6.960484096293432e-40	0	0
18.25000000000005	646.7813540777622	-6479.097098378334	9362.712050645296	0	0.93	0	-6.900084832018092	22.72511446179737	-5.982431395501411	0.05115573320902866	0.0008928359757693548	-0.7506613837303497	0	0	1.467779757086326	7.220991225623171	-3.939691480039234	4.566059112960108	0.07969276536184557	11.85070083104358	0	0	0	0	0	0	0	0	0	0	0	0	0	0	0	1.052357267868557e-38	0	0	0
18.26000000000005	647.4177041139972	-6478.982482672954	9362.779457573128	0	0.93	0	-7.156421569322842	21.42770715900135	-4.963494686466364	0.05936412162920299	0.001036099379983972	-1.074874891289382	0	0	1.718499980141178	6.972286290526989	-4.06502953391473	5.152827286299654	0.08993380193253346	11.52898014014675	0	0	0	0	0	0	0	0	0	0	0	0	0	0	0	0	0	0	0
18.27000000000006	648.0940410271105	-6478.859472737657	9362.868698865723	0	0.93	0	-7.451500966112469	20.05453514015867	-3.939780680292019	0.0696455119029963	0.001215543491944187	-1.191709483114047	0	0	1.995434167480038	6.732342865466325	-4.155851929118803	5.666432467433303	0.0988979033986175	11.06932120339151	0	0	0	0	0	0	0	0	0	0	0	0	0	0	0	0	0	0	0
18.28000000000006	648.8091597657195	-6478.744769871562	9362.907081556934	0	0.93	0	-7.714917955361211	18.6862179307068	-2.859867701881381	0.08121825412092511	0.001417525947131596	-1.084141176089434	0	0	2.264880710526204	6.479920332999586	-4.268775387015246	6.211684444065661	0.1084143456438593	10.62702611393271	0	0	0	0	0	0	0	0	0	6.615567540854921e-47	0	0	0	0	0	3.136269056405296e-46	0	0	0
18.29000000000006	649.5646218410481	-6478.620761628265	9362.950161699542	0	0.93	0	-7.891739172465486	17.24743749098088	-1.834728627955885	0.09460290469261588	0.001651132168836541	-0.908411949368381	0	0	2.463223540285377	6.256233162326438	-4.351602632481042	6.676556871009087	0.1165279000957589	10.11700477585683	0	0	0	0	0	0	0	0	0	0	0	0	0	0	0	0	0	0	0
18.30000000000006	650.3619716601933	-6478.511080246742	9362.935191125418	0	0.93	0	-8.022525959631938	15.79798811853168	-0.7761315031184159	0.1074250472777705	0.001874920774107666	-0.6765444775200967	1.053094875857394e-17	-1.003737991446485e-26	2.613558456836921	5.986358253257735	-4.475031298762909	7.178361150361295	0.1252860369710523	9.685048865558731	1.58130341325634e-21	4.968673023103376e-27	3.764773256106121e-29	-2.229366792081179e-27	-9.141635069051014e-30	-4.964017237977247e-17	-1.843886033087782e-26	1.166614389501997e-16	0	0	-3.650714688610071e-26	-2.399864356713112e-27	2.479617339273921e-16	-5.463698580890605e-17	6.134677928684754e-17	0	0	-9.893405032938771e-28	1.161571523398374e-27
18.31000000000006	651.1912837248788	-6478.397513632854	9362.900502217601	0	0.93	0	-8.043295539288824	14.27631531962745	0.2287867194806114	0.1228117483419108	0.00214346936869703	-0.4904631456678035	7.30161806528105e-19	1.80295201017868e-25	2.689153303566376	5.751081846389817	-4.599321004289152	7.73019201417263	0.1349173024586846	9.312965100678568	-7.920937921925151e-22	2.013126372344422e-25	2.483375063138519e-29	-1.778463065676978e-28	-3.510075392418798e-29	2.042292116888937e-18	4.909920857140541e-27	-6.074142911563021e-18	1.377308784706703e-16	1.377659950077029e-16	-2.551028965024398e-27	-2.652435502293646e-28	6.060643340223507e-18	2.397734193892745e-17	3.016692928234123e-17	1.378157197635681e-16	1.377687883788332e-16	-4.385068561730915e-28	-6.483900988613568e-28
18.32000000000006	652.0601286427199	-6478.271840563316	9362.841201542336	0	0.93	0	-7.876184845410748	12.69046047358049	1.104936202602289	0.1311715455361166	0.002289375354534906	-0.4402889162648445	0	0	2.681659631315449	5.509639498184644	-4.722985636799646	8.272735239754434	0.1443864680794774	8.990116763721398	0	0	0	0	0	0	0	0	0	0	0	0	0	0	0	0	0	0	0
18.33000000000007	652.9597919310729	-6478.163987524948	9362.759319826613	0	0.93	0	-7.45517051737816	11.0761048910548	1.883842301145798	0.1237884951750326	0.002160516816893434	-0.6275803375688548	0	0	2.582469235940474	5.278089807016274	-4.86081837973753	8.80752158701098	0.1537202506338178	8.728338446505273	0	0	0	0	0	0	0	0	0	0	0	0	0	0	0	0	0	0	0
18.34000000000007	653.8715593148812	-6478.051072224425	9362.668490821172	0	0.93	0	-6.76159465731882	9.466764303715607	2.556537313951037	0.1081593556413246	0.001887736872776617	-1.016877054005863	0	0	2.452262129233386	5.055781437957609	-4.997790091845316	9.428674253594934	0.1645614098232504	8.602441460881945	0	0	0	0	0	0	0	0	0	0	0	0	0	0	0	0	0	0	0
18.35000000000007	654.8210214647903	-6477.933483164307	9362.574399890369	0	0.93	0	-5.886856857363084	7.869615286246949	3.14784274651268	0.09008147347380356	0.001572218307165806	-1.500357223667818	-1.107648657969485e-14	6.463579053744049e-23	2.168155903861872	4.846054962980864	-5.118316928492253	9.976866218545474	0.1741291645446147	8.494915612628816	6.399704153954054e-19	-5.974278789264179e-23	-4.908149274555737e-26	-2.786615622904524e-23	-2.771543477163079e-26	-2.39015491451347e-16	3.758169929228237e-23	6.098542620177063e-13	0	0	2.472327656173494e-23	-2.525471486184643e-23	-2.71309461073773e-13	2.503081796898409e-14	-5.316700516460632e-15	0	0	2.17703066855979e-24	-3.637317407122127e-23
18.36000000000007	655.7874314199543	-6477.824528131849	9362.48994662937	0	0.93	0	-4.920901626057157	6.335530792385653	3.715290131589284	0.07514652028879248	0.001311554200456149	-1.878614495653727	0	0	1.776325269373809	4.621576013056454	-5.172362867962144	10.46163720409638	0.1825900143606159	8.431300533756351	0	0	0	0	0	0	0	0	8.272985239343543e-39	1.052357267868557e-38	0	0	0	0	0	0	6.721981463565658e-39	0	0
18.37000000000007	656.7971455106948	-6477.706711045731	9362.400873715455	0	0.93	-1.481464915658708e-31	-3.949557784461109	4.855089267032435	4.308408199632139	0.06407169045210753	0.001118261955707891	-2.05267384596137	3.036241912492766e-23	-2.116688678692511e-26	1.284614455423314	4.442482141568502	-5.218406262439935	10.91534204010663	0.1905086575812157	8.381544773456866	5.949678838169586e-22	-1.80495154346101e-26	6.01403478607334e-28	-1.013837863006462e-27	-4.609029571870238e-27	1.156960928413238e-16	-4.373542182897631e-17	-6.90624551464695e-17	3.550770731374102e-16	3.550771263166e-16	1.228872342742862e-26	-1.421063770716423e-26	-6.071547201176929e-17	-1.049287145575306e-17	-2.40332434984665e-18	3.55077074158598e-16	3.550771267155158e-16	-2.026491135192458e-28	-5.466099479495312e-27
